<?xml version="1.0" standalone="no"?>
<!DOCTYPE svg PUBLIC "-//W3C//DTD SVG 20010904//EN"
 "http://www.w3.org/TR/2001/REC-SVG-20010904/DTD/svg10.dtd">
<svg version="1.0" xmlns="http://www.w3.org/2000/svg"
 width="672.000000pt" height="1280.000000pt" viewBox="0 0 672.000000 1280.000000"
 preserveAspectRatio="xMidYMid meet">
<metadata>
Created by potrace 1.16, written by Peter Selinger 2001-2019
</metadata>
<g transform="translate(0.000000,1280.000000) scale(0.100000,-0.100000)"
fill="#000000" stroke="none">
<path d="M220 12778 c-77 -30 -169 -123 -198 -201 l-22 -58 0 -6124 0 -6124
21 -56 c26 -70 103 -155 171 -189 l52 -26 3121 0 3121 0 51 25 c60 30 136 108
163 168 19 41 20 148 20 6203 l0 6160 -26 52 c-34 68 -119 145 -189 171 l-56
21 -3087 -1 -3087 0 -55 -21z m3940 -6168 l0 -200 -35 0 c-19 0 -35 4 -35 9 0
6 -17 3 -37 -5 -30 -13 -44 -14 -75 -5 -89 27 -114 169 -45 248 30 34 33 35
89 31 l58 -4 0 63 0 63 40 0 40 0 0 -200z m551 64 c57 -29 78 -147 39 -212
-53 -86 -198 -78 -236 13 -29 69 -9 171 37 196 57 30 105 31 160 3z m-2714 5
c8 -8 17 -8 31 0 11 6 40 11 64 11 36 0 50 -6 73 -30 25 -26 30 -40 33 -98 3
-58 0 -72 -20 -102 -38 -56 -86 -70 -150 -45 -16 6 -18 0 -18 -54 l0 -61 -40
0 -40 0 0 188 c0 104 3 192 7 195 10 11 48 8 60 -4z m328 -9 l6 -20 26 20 c14
11 36 20 49 20 21 0 24 -5 24 -35 0 -33 -2 -35 -32 -35 -51 0 -56 -8 -59 -95
-3 -113 -5 -117 -48 -113 l-36 3 -3 114 c-4 145 0 161 38 161 20 0 31 -6 35
-20z m223 -122 l3 -138 -41 0 -40 0 0 141 0 140 38 -3 37 -3 3 -137z m132 127
c0 -14 3 -14 30 0 38 19 114 20 130 0 11 -13 15 -13 41 0 43 23 112 19 135 -6
16 -18 19 -37 19 -138 l0 -116 -37 -3 -38 -3 0 95 c0 118 -3 126 -46 126 -43
0 -50 -18 -48 -120 0 -41 -1 -81 -4 -87 -2 -7 -19 -13 -38 -13 l-34 0 0 94 c0
116 -3 126 -44 126 -49 0 -53 -8 -54 -100 0 -47 -1 -93 -1 -103 -1 -15 -8 -18
-38 -15 l-38 3 -3 124 c-1 69 0 131 2 138 8 19 66 17 66 -2z m621 -14 c64 -65
12 -141 -96 -141 -50 0 -59 -15 -25 -45 16 -15 30 -17 80 -12 59 7 60 6 60
-18 0 -30 -8 -34 -68 -42 -105 -12 -165 37 -166 136 0 100 45 150 137 151 41
0 53 -5 78 -29z m248 -38 c11 -38 23 -80 27 -95 3 -16 9 -28 14 -28 7 0 10 11
45 133 16 57 16 57 56 57 21 0 39 -4 39 -8 0 -4 -22 -66 -50 -137 -27 -71 -50
-131 -50 -132 0 -2 -17 -3 -39 -3 l-38 0 -52 133 c-28 72 -51 135 -51 140 0 4
18 7 40 7 l39 0 20 -67z m291 -73 l0 -140 -40 0 -40 0 0 133 c0 74 3 137 7
140 3 4 21 7 40 7 l33 0 0 -140z m594 115 c28 -25 35 -70 16 -105 -12 -23 -61
-40 -116 -40 -49 0 -54 -10 -23 -41 19 -19 29 -21 81 -16 59 5 59 5 56 -21 -2
-21 -10 -28 -41 -35 -43 -10 -114 -2 -137 16 -51 39 -67 134 -34 203 21 45 56
63 120 64 41 0 56 -5 78 -25z m-348 -397 c15 -15 15 -24 5 -79 -14 -70 -47
-141 -82 -178 -31 -33 -35 -14 -11 61 48 148 45 154 -83 151 -52 -1 -95 3 -95
8 0 9 49 37 90 50 43 14 158 5 176 -13z m-1394 -29 c121 -72 280 -129 442
-160 93 -18 134 -20 270 -16 179 6 260 20 411 73 134 48 155 51 155 28 0 -12
-23 -34 -62 -61 -342 -227 -824 -212 -1158 35 -62 46 -130 109 -130 121 0 18
15 13 72 -20z"/>
<path d="M4004 6626 c-23 -17 -35 -66 -27 -109 7 -36 43 -60 77 -51 25 6 26 8
26 85 0 62 -3 79 -14 79 -8 0 -20 2 -28 5 -7 3 -23 -1 -34 -9z"/>
<path d="M4614 6627 c-29 -16 -34 -27 -34 -79 0 -35 6 -54 20 -68 43 -43 90
-8 90 68 0 68 -33 103 -76 79z"/>
<path d="M2033 6630 c-21 -8 -23 -16 -23 -79 0 -59 3 -72 19 -81 51 -27 91 7
91 78 0 70 -35 103 -87 82z"/>
</g>
</svg>
