<svg id="Group_202" data-name="Group 202" xmlns="http://www.w3.org/2000/svg" xmlns:xlink="http://www.w3.org/1999/xlink" width="1367.025" height="462" viewBox="0 0 1367.025 462">
  <defs>
    <linearGradient id="linear-gradient" x1="1" y1="0.01" x2="0" y2="1" gradientUnits="objectBoundingBox">
      <stop offset="0" stop-color="#a52eff"/>
      <stop offset="1" stop-color="#3d58f3"/>
    </linearGradient>
    <linearGradient id="linear-gradient-2" x1="0.814" y1="0.106" x2="0.213" y2="0.854" gradientUnits="objectBoundingBox">
      <stop offset="0" stop-color="#fff" stop-opacity="0"/>
      <stop offset="1" stop-color="#fff" stop-opacity="0.2"/>
    </linearGradient>
    <linearGradient id="linear-gradient-3" x1="0.093" y1="0.119" x2="0.916" y2="0.851" xlink:href="#linear-gradient-2"/>
  </defs>
  <path id="Path_152" data-name="Path 152" d="M1436,788s138.5-112.93,310-121.387,208.5,80.593,376,87.558S2281.5,638.754,2430,628.8s188.5,92.533,286,85.568,86.667-43.705,86.667-43.705v-344L1436,326Z" transform="translate(-1436 -326)" fill="url(#linear-gradient)"/>
  <path id="Path_351" data-name="Path 351" d="M-3034.666,214.667c-41.333-68-80,121.334-138.667,125.333-29.536,2.013-33.726-20.643-42.515-43.3-8.667-22.346-21.808-44.691-68.152-43.367C-3377.333,256-3316,112-3214.666,108c67.471-2.664,70.511-49.656,65.009-80.768l208.324.1v344s6.592,22.366-36.815,35.5C-2986.331,357.575-3005.006,263.463-3034.666,214.667Z" transform="translate(4308 -26.667)" fill="url(#linear-gradient-2)"/>
  <path id="Path_195" data-name="Path 195" d="M-1412.5,47a23.348,23.348,0,0,1-16.617-6.883A23.345,23.345,0,0,1-1436,23.5a23.347,23.347,0,0,1,6.883-16.618A23.348,23.348,0,0,1-1412.5,0a23.348,23.348,0,0,1,16.617,6.883A23.347,23.347,0,0,1-1389,23.5a23.345,23.345,0,0,1-6.883,16.617A23.348,23.348,0,0,1-1412.5,47Zm0-40.286A16.805,16.805,0,0,0-1429.285,23.5,16.8,16.8,0,0,0-1412.5,40.286,16.8,16.8,0,0,0-1395.714,23.5,16.805,16.805,0,0,0-1412.5,6.714Z" transform="translate(1490.999 272)" fill="#fff" stroke="rgba(0,0,0,0)" stroke-width="1" opacity="0.2"/>
  <path id="Path_355" data-name="Path 355" d="M-4241.53,390.684V46.537l5.658,0c77.6,51.747,88.6,159.233,184.341,104,52.73-30.421,116.771-72.154,176.222-103.822l231.295.113c-36.131,23.25-95.348,48.932-85.517,103.709,14,78,60,182-30,184-38.392.853-70.961-20.493-104.227-41.84-44.718-28.695-90.7-57.391-153.773-32.16-94.464,37.786-183.03,130.145-223.9,130.147Z" transform="translate(4241.531 -46.537)" fill="url(#linear-gradient-3)"/>
  <path id="Path_342" data-name="Path 342" d="M-1424.377,23.246a11.548,11.548,0,0,1-8.219-3.4,11.546,11.546,0,0,1-3.4-8.218,11.548,11.548,0,0,1,3.4-8.219,11.548,11.548,0,0,1,8.219-3.4,11.547,11.547,0,0,1,8.219,3.4,11.547,11.547,0,0,1,3.4,8.219,11.546,11.546,0,0,1-3.4,8.218A11.548,11.548,0,0,1-1424.377,23.246Zm0-19.925a8.312,8.312,0,0,0-8.3,8.3,8.311,8.311,0,0,0,8.3,8.3,8.311,8.311,0,0,0,8.3-8.3A8.312,8.312,0,0,0-1424.377,3.321Z" transform="translate(2395.999 75.754)" fill="#fff" stroke="rgba(0,0,0,0)" stroke-width="1" opacity="0.2"/>
  <circle id="Ellipse_80" data-name="Ellipse 80" cx="13.5" cy="13.5" r="13.5" transform="translate(412 107)" fill="#fff" opacity="0.2"/>
  <circle id="Ellipse_81" data-name="Ellipse 81" cx="18.5" cy="18.5" r="18.5" transform="translate(1197 285)" fill="#fff" opacity="0.2"/>
  <circle id="Ellipse_68" data-name="Ellipse 68" cx="8.5" cy="8.5" r="8.5" transform="translate(614 367)" fill="#fff" opacity="0.2"/>
  <g id="Path_343" data-name="Path 343" transform="matrix(0.259, 0.966, -0.966, 0.259, 710.181, 49.242)" fill="none" opacity="0.2">
    <path d="M18.565,10.207a8.165,8.165,0,0,1,14.178,0L45.89,33.214A8.165,8.165,0,0,1,38.8,45.43H12.507A8.165,8.165,0,0,1,5.418,33.214Z" stroke="none"/>
    <path d="M 25.6540470123291 11.0933837890625 C 25.10180282592773 11.0933837890625 23.72855758666992 11.24877166748047 22.90609169006348 12.68808364868164 L 9.759281158447266 35.69500732421875 C 8.943126678466797 37.12327194213867 9.494781494140625 38.3798828125 9.76983642578125 38.85385131835938 C 10.04489135742188 39.32782745361328 10.86223602294922 40.43022918701172 12.50722503662109 40.43022918701172 L 38.80086898803711 40.43022918701172 C 40.44585800170898 40.43022918701172 41.26320266723633 39.32782745361328 41.53825759887695 38.85385131835938 C 41.81331253051758 38.3798828125 42.36495971679688 37.12327194213867 41.54881286621094 35.69500732421875 L 28.40200233459473 12.68808364868164 C 27.57953643798828 11.24877166748047 26.20629119873047 11.0933837890625 25.6540470123291 11.0933837890625 M 25.65404319763184 6.0933837890625 C 28.41500473022461 6.0933837890625 31.17597007751465 7.464717864990234 32.74321365356445 10.20738220214844 L 45.8900260925293 33.21431732177734 C 49.00043487548828 38.65753936767578 45.07010269165039 45.43022918701172 38.80086898803711 45.43022918701172 L 12.50722503662109 45.43022918701172 C 6.237991333007813 45.43022918701172 2.307659149169922 38.65753936767578 5.418056488037109 33.21431732177734 L 18.56488037109375 10.20738220214844 C 20.13212013244629 7.464717864990234 22.89307975769043 6.0933837890625 25.65404319763184 6.0933837890625 Z" stroke="none" fill="#fff"/>
  </g>
  <g id="Path_344" data-name="Path 344" transform="matrix(-0.839, 0.545, -0.545, -0.839, 181.642, 48.728)" fill="none" opacity="0.2">
    <path d="M17.093,9.782a7.321,7.321,0,0,1,12.712,0L41.592,30.409a7.32,7.32,0,0,1-6.356,10.952H11.662A7.321,7.321,0,0,1,5.306,30.409Z" stroke="none"/>
    <path d="M 23.44865989685059 10.0933837890625 C 22.8692798614502 10.0933837890625 21.42853927612305 10.25640487670898 20.56566047668457 11.76645278930664 L 8.778518676757813 32.3939208984375 C 7.922260284423828 33.89238357543945 8.501018524169922 35.21074295043945 8.789588928222656 35.70801544189453 C 9.078170776367188 36.20527267456055 9.935680389404297 37.36186218261719 11.66152954101563 37.36186218261719 L 35.23579025268555 37.36186218261719 C 36.96163940429688 37.36186218261719 37.81914901733398 36.20527267456055 38.10773086547852 35.70801544189453 C 38.39630126953125 35.21074295043945 38.97505187988281 33.89238357543945 38.11878967285156 32.3939208984375 L 26.3316707611084 11.76645278930664 C 25.46879005432129 10.25641250610352 24.02803993225098 10.0933837890625 23.44865989685059 10.0933837890625 M 23.44866180419922 6.0933837890625 C 25.92407417297363 6.0933837890625 28.39949035644531 7.322887420654297 29.80463981628418 9.781894683837891 L 41.59175872802734 30.40937423706055 C 44.38048934936523 35.28964233398438 40.85663986206055 41.36186218261719 35.23579025268555 41.36186218261719 L 11.66152954101563 41.36186218261719 C 6.040679931640625 41.36186218261719 2.516830444335938 35.28964233398438 5.305549621582031 30.40937423706055 L 17.09268951416016 9.781894683837891 C 18.49783515930176 7.322887420654297 20.97324752807617 6.0933837890625 23.44866180419922 6.0933837890625 Z" stroke="none" fill="#fff"/>
  </g>
  <path id="Path_349" data-name="Path 349" d="M-3541.334,357.334c49.333-36,85.334-4,98.667-49.334,11.337-38.546,88.224-26,105.256-2.529-99.087,16.29-120.5,88.257-204.39,113.885C-3557.392,402.493-3569.836,378.133-3541.334,357.334Z" transform="translate(4308)" fill="#fff" opacity="0.16"/>
  <circle id="Ellipse_82" data-name="Ellipse 82" cx="9.5" cy="9.5" r="9.5" transform="translate(286 285)" fill="#fff" opacity="0.2"/>
</svg>
