<svg xmlns="http://www.w3.org/2000/svg" width="58" height="52.2" viewBox="0 0 58 52.2">
  <path id="coins" d="M57.989,20.4c-.1-1.654-2.063-2.946-6-3.932a2.18,2.18,0,0,0,.208-.9V8.8h-.016C51.837,3.166,28.752,3,26.1,3S.362,3.166.016,8.8H0v.126H0v6.64C0,17.4,2.375,18.84,5.9,19.91a2.12,2.12,0,0,0-.087.49H5.8v.126h0v6.628C2,28.132.1,29.406.01,31.033H0v.126H0V37.8c0,1.279,1.156,2.363,3.043,3.267a2.13,2.13,0,0,0-.129.6H2.9v.126h0v6.64c.008,3.215,7.247,5.211,15.291,6.143a.888.888,0,0,0,.176.036c.018,0,.034-.01.052-.011,1.551.175,3.126.311,4.685.409a.8.8,0,0,0,.1.019c.018,0,.033-.01.05-.011,1.98.12,3.928.181,5.75.181s3.77-.061,5.75-.182c.017,0,.033.011.05.011.034,0,.063-.016.1-.019,1.559-.1,3.135-.233,4.685-.409.018,0,.034.01.052.01a.888.888,0,0,0,.176-.036c8.044-.932,15.282-2.929,15.291-6.145V41.667h-.015c-.068-1.185-1.078-2.174-3.073-3a2.161,2.161,0,0,0,.188-.87V31.478c3.47-1.067,5.8-2.495,5.8-4.315V20.4ZM50.162,38.11l-.33.289a8.648,8.648,0,0,1-2.466,1.334V35.124a14.386,14.386,0,0,0,2.9-1.33v4A.615.615,0,0,1,50.162,38.11ZM28.542,42.6l-.425.009c-.345.007-.7.009-1.049.012V37.794l.8-.012.154,0q1.46-.028,2.915-.093v4.827q-.31.016-.624.029C29.728,42.569,29.14,42.588,28.542,42.6Zm-4.221.014Q23.656,42.6,23,42.584l-.162-.006q-.79-.026-1.569-.065V37.688q1.453.068,2.915.093l.153,0,.8.012v4.831c-.188,0-.375,0-.562,0Zm-17.46-2.2-.094-.027v-4.67c.9.244,1.873.466,2.9.668V41.1q-1.331-.283-2.451-.59C7.1,40.478,6.975,40.446,6.86,40.412Zm20.375,8,.8.012v4.832q-2-.019-3.867-.112V48.322q1.453.068,2.915.093Zm3.682,0q1.46-.028,2.915-.093v4.827q-1.862.091-3.867.112V48.428l.8-.012Zm7.749-.437v4.8q-1.393.146-2.9.254V48.211C36.747,48.147,37.715,48.069,38.667,47.977Zm1.933-.209q1.495-.18,2.9-.408v4.746q-1.366.241-2.9.443Zm4.833-.753c1.027-.2,2-.424,2.9-.668v4.67c-.861.248-1.831.489-2.9.716Zm-32.867,0v4.718c-1.069-.227-2.039-.468-2.9-.716v-4.67C10.57,46.591,11.54,46.814,12.567,47.015Zm1.933.346q1.4.228,2.9.408V52.55q-1.533-.2-2.9-.443Zm4.833.616c.951.092,1.92.17,2.9.235v4.821q-1.507-.106-2.9-.254Zm-2.4-5.781-.294-.03-.208-.022v-4.8c.951.092,1.92.17,2.9.235V42.4C18.521,42.338,17.719,42.273,16.935,42.2ZM14.5,37.135v4.781q-1.533-.2-2.9-.443V36.727Q13,36.955,14.5,37.135Zm19.01,5.216-.644.048V37.579c.98-.065,1.949-.142,2.9-.235v4.8c-.6.063-1.208.122-1.836.173C33.791,42.33,33.651,42.34,33.51,42.351Zm4.19-.435V37.135q1.495-.18,2.9-.408v4.746Q39.234,41.714,37.7,41.916Zm4.833-5.534c1.027-.2,2-.424,2.9-.668v4.67c-.861.248-1.831.489-2.9.716ZM29.314,31.966c-.727-.018-1.437-.046-2.135-.08l-.112,0V27.055q1.453.068,2.915.093l.153,0,.8.012v4.827c-.471,0-.945-.007-1.4-.017ZM6.767,18.152v-4.67c.9.244,1.873.466,2.9.668v4.718l-.358-.075c-.514-.113-1.016-.231-1.5-.356C7.448,18.343,7.1,18.247,6.767,18.152Zm17.569-2.6.8.012v4.827c-1.3-.013-2.595-.046-3.867-.11V15.455q1.453.068,2.915.093Zm3.682,0q1.46-.028,2.915-.093v4.823c-.164.008-.322.019-.487.027l-.042,0c-.649.029-1.31.05-1.98.066l-.313.007c-.344.007-.7.008-1.045.012V15.562l.8-.012Zm22.027.485-.027-.006-.352.274a9.4,9.4,0,0,1-2.3,1.188v-4.6a14.385,14.385,0,0,0,2.9-1.33v4A.759.759,0,0,1,50.045,16.033ZM37.7,19.677V14.9q1.495-.18,2.9-.408v4.739C39.684,19.395,38.719,19.544,37.7,19.677Zm4.833-.817V14.15c1.027-.2,2-.424,2.9-.668v4.659C44.567,18.393,43.592,18.634,42.533,18.86Zm-6.767-3.75v4.795q-1.4.148-2.9.256V15.345C33.847,15.281,34.815,15.2,35.767,15.11Zm-19.333,4.8v-4.8c.951.092,1.92.17,2.9.235v4.812C18.349,20.087,17.379,20.007,16.433,19.907ZM14.5,14.9v4.776c-.191-.025-.391-.045-.58-.072l-.363-.053q-.838-.12-1.64-.256l-.316-.056V14.495Q13,14.721,14.5,14.9ZM24.894,31.748l-.392-.029q-.928-.072-1.812-.16l-.379-.039c-.026,0-.051-.007-.077-.009v-4.8c.951.092,1.92.17,2.9.235v4.818Zm-6.387-.722c-.383-.061-.742-.127-1.107-.19V26.095q1.4.228,2.9.408v4.781c-.592-.078-1.171-.16-1.726-.247Zm-3.04-5.277v4.711q-1.6-.344-2.9-.726V25.081C13.47,25.324,14.44,25.547,15.467,25.749ZM10.633,24.49v4.593a6.031,6.031,0,0,1-2.819-1.72l-.065-.108a.611.611,0,0,1-.016-.092v-4A14.385,14.385,0,0,0,10.633,24.49Zm23.185,2.657q1.46-.028,2.915-.093v4.822c-1.27.063-2.562.1-3.867.111V27.162l.8-.012ZM46.31,30.856c-.424.073-.853.146-1.292.213-.252.039-.51.075-.769.112s-.5.065-.747.1V26.5q1.495-.18,2.9-.408V30.84Zm-6.545.826c-.361.03-.733.049-1.1.075V26.945c.98-.065,1.949-.142,2.9-.235v4.8c-.562.059-1.122.118-1.7.166Zm11.047-1.813c-.481.134-.991.26-1.511.383-.241.056-.486.112-.738.166-.074.016-.154.031-.229.047V25.75c1.027-.2,2-.424,2.9-.668v4.67Zm5.244-9.407c-.089.656-1.577,1.529-4.232,2.35h0A64.885,64.885,0,0,1,36.27,25.137c-.347.014-.693.029-1.047.041-.289.01-.579.018-.874.026-.8.017-1.612.03-2.45.03s-1.649-.013-2.45-.031c-.294-.007-.584-.016-.874-.026-.355-.011-.7-.026-1.047-.041a64.877,64.877,0,0,1-15.554-2.324h0C9.342,22,7.857,21.132,7.747,20.478a.227.227,0,0,1,.016-.057c.066.016.139.03.206.046.378.09.766.177,1.16.26,1.921.414,4.049.753,6.317,1.012.008,0,.014,0,.02,0h0c1.545.176,3.147.314,4.793.412.013,0,.023.007.036.007s.012,0,.018,0q1.776.1,3.6.148c.743.018,1.473.028,2.184.028.508,0,1.028-.006,1.552-.015A74.024,74.024,0,0,0,45.716,20.08c.209-.059.413-.12.614-.181.123-.038.248-.074.367-.112.35-.112.685-.227,1.009-.347l.165-.064c.274-.1.537-.211.788-.32.072-.032.147-.063.217-.095.268-.121.527-.245.767-.373.108-.057.2-.116.3-.174s.232-.134.339-.2c.061-.039.133-.075.191-.114C54.805,19.036,55.946,20.063,56.056,20.463ZM26.1,4.933c15.939,0,24,2.509,24.152,3.95-.117.653-1.6,1.517-4.228,2.329h0A64.885,64.885,0,0,1,30.47,13.536c-.347.014-.693.029-1.047.041-.289.01-.579.018-.874.026-.8.018-1.612.031-2.45.031s-1.649-.013-2.45-.031c-.294-.007-.584-.016-.874-.026-.355-.011-.7-.026-1.047-.041A64.877,64.877,0,0,1,6.176,11.212h0C3.548,10.4,2.065,9.537,1.948,8.883,2.1,7.443,10.161,4.933,26.1,4.933ZM1.933,15.563v-4a14.385,14.385,0,0,0,2.9,1.33v4.628C2.953,16.814,1.935,16.107,1.933,15.563ZM6.616,28.94c.015.015.037.029.051.044,1.323,1.336,4.064,2.386,7.475,3.169l.241.054q.376.084.762.164A74.553,74.553,0,0,0,26.092,33.76H26.1q1.963.115,4.015.153c.605.013,1.2.02,1.783.02.667,0,1.351-.008,2.047-.024,1.264-.026,2.51-.078,3.739-.15,0,0,.009,0,.014,0s.015,0,.024,0a74.764,74.764,0,0,0,11.159-1.429,17.513,17.513,0,0,1-2.859,1.117h0a66.706,66.706,0,0,1-16.7,2.367c-.218.007-.432.014-.652.02-.237.006-.478.01-.718.014-.608.01-1.22.018-1.848.018-.837,0-1.649-.013-2.45-.031-.294-.007-.584-.016-.874-.026-.355-.011-.7-.026-1.047-.041A64.877,64.877,0,0,1,6.176,33.445h0c-2.658-.822-4.146-1.7-4.232-2.352C2.051,30.73,3.029,29.82,6.616,28.94ZM1.933,37.8v-4a14.385,14.385,0,0,0,2.9,1.33v4.61l-.552-.215-.012.012C2.752,38.9,1.935,38.283,1.933,37.8Zm2.9,10.633v-4a14.385,14.385,0,0,0,2.9,1.33v4.628C5.853,49.68,4.835,48.974,4.833,48.429Zm45.433,1.956V45.758a14.386,14.386,0,0,0,2.9-1.33v4C53.166,48.972,52.147,49.679,50.267,50.385Zm2.887-8.644c-.105.654-1.59,1.522-4.23,2.338h0A64.885,64.885,0,0,1,33.37,46.4c-.347.014-.693.029-1.047.041-.289.01-.579.018-.874.026-.8.017-1.612.03-2.45.03s-1.65-.013-2.451-.031c-.291-.007-.578-.016-.865-.026-.357-.012-.7-.026-1.054-.041A64.885,64.885,0,0,1,9.076,44.078h0c-2.557-.79-4.034-1.629-4.22-2.276.288.1.587.2.893.294l.093.028q.391.12.8.233l.313.086c.155.042.313.081.472.122A70.522,70.522,0,0,0,20.3,44.393H20.3c1.5.089,3.029.144,4.575.162.412.008.821.012,1.222.012.533,0,1.078-.007,1.63-.016,1.41-.023,2.8-.075,4.163-.157l.008,0s.008,0,.013,0c1.658-.1,3.262-.242,4.8-.419.006,0,.011,0,.016,0,.021,0,.039-.011.06-.013,1.717-.2,3.345-.442,4.856-.725.311-.057.618-.116.921-.177l.2-.042a25.974,25.974,0,0,0,7.021-2.285c.093-.05.18-.1.268-.154.107-.064.21-.129.309-.194s.2-.118.285-.179C52.565,40.889,53.091,41.5,53.154,41.741Zm.013-12.623V24.491a14.385,14.385,0,0,0,2.9-1.33v4C56.066,27.705,55.047,28.413,53.167,29.118Z" transform="translate(0 -3)" fill="#ef7f1d"/>
</svg>
