<svg id="laptop" xmlns="http://www.w3.org/2000/svg" width="58" height="58" viewBox="0 0 58 58">
  <path id="Path_181" data-name="Path 181" d="M48,448h1.871v1.871H48Zm0,0" transform="translate(-42.387 -395.613)" fill="#19c569"/>
  <path id="Path_182" data-name="Path 182" d="M80,448h1.871v1.871H80Zm0,0" transform="translate(-70.645 -395.613)" fill="#19c569"/>
  <path id="Path_183" data-name="Path 183" d="M112,448h1.871v1.871H112Zm0,0" transform="translate(-98.903 -395.613)" fill="#19c569"/>
  <path id="Path_184" data-name="Path 184" d="M384,448h7.484v1.871H384Zm0,0" transform="translate(-339.097 -395.613)" fill="#19c569"/>
  <path id="Path_185" data-name="Path 185" d="M56.129,48.645V17.774A4.683,4.683,0,0,0,51.452,13.1H48.645a13.1,13.1,0,0,0-26.194,0H6.548a4.683,4.683,0,0,0-4.677,4.677V48.645H0v4.677A4.683,4.683,0,0,0,4.677,58H53.323A4.683,4.683,0,0,0,58,53.323V48.645ZM51.452,14.968a2.81,2.81,0,0,1,2.806,2.806V48.645H52.387V18.71a1.873,1.873,0,0,0-1.871-1.871H48.093a13.005,13.005,0,0,0,.4-1.871ZM24.866,9.659,34.8,13.8l3.4,10.2A11.208,11.208,0,0,1,24.866,9.659ZM39.972,23.41,36.619,13.349l7.493-7.493A11.2,11.2,0,0,1,39.972,23.41ZM35.548,1.871A11.174,11.174,0,0,1,42.79,4.533l-7.46,7.459L25.591,7.935a11.228,11.228,0,0,1,9.957-6.064ZM3.742,17.774a2.81,2.81,0,0,1,2.806-2.806H22.6a12.882,12.882,0,0,0,.4,1.871H7.484A1.873,1.873,0,0,0,5.613,18.71V48.645H3.742ZM56.129,53.323a2.81,2.81,0,0,1-2.806,2.806H4.677a2.81,2.81,0,0,1-2.806-2.806V50.516H21.144a7.269,7.269,0,0,0,4.89,1.871h5.934a7.269,7.269,0,0,0,4.89-1.871H48.645V48.645H36.1l-.274.274a5.416,5.416,0,0,1-3.856,1.6H26.033a5.417,5.417,0,0,1-3.856-1.6l-.273-.274H7.484V18.71H23.733a13.068,13.068,0,0,0,23.63,0h3.153V50.516h5.613Zm0,0" fill="#19c569"/>
  <path id="Path_186" data-name="Path 186" d="M116.484,293.613a2.79,2.79,0,0,0-1.554.472l-3.264-2.447a2.764,2.764,0,0,0,.14-.832,2.806,2.806,0,0,0-5.613,0,2.778,2.778,0,0,0,.165.915l-5.239,4.192a2.751,2.751,0,0,0-3.148.137l-4.034-2.69a2.745,2.745,0,0,0,.095-.684,2.806,2.806,0,1,0-5.613,0,2.744,2.744,0,0,0,.095.684l-4.034,2.69a2.777,2.777,0,0,0-1.674-.567,2.806,2.806,0,1,0,2.806,2.806,2.746,2.746,0,0,0-.095-.684l4.034-2.689a2.754,2.754,0,0,0,3.347,0l4.034,2.689a2.751,2.751,0,0,0-.095.684,2.806,2.806,0,1,0,5.613,0,2.779,2.779,0,0,0-.165-.915l5.239-4.192a2.77,2.77,0,0,0,3.028-.043l3.264,2.447a2.765,2.765,0,0,0-.14.832,2.806,2.806,0,1,0,2.806-2.806Zm-33.677,5.613a.935.935,0,1,1,.936-.935A.937.937,0,0,1,82.806,299.226Zm8.419-5.613a.935.935,0,1,1,.935-.935A.937.937,0,0,1,91.226,293.613Zm8.419,5.613a.935.935,0,1,1,.935-.935A.937.937,0,0,1,99.645,299.226ZM109,291.742a.936.936,0,1,1,.935-.935A.937.937,0,0,1,109,291.742Zm7.484,5.613a.935.935,0,1,1,.935-.936A.937.937,0,0,1,116.484,297.355Zm0,0" transform="translate(-70.645 -254.323)" fill="#19c569"/>
  <path id="Path_187" data-name="Path 187" d="M94.968,176H80v13.1H94.968ZM93.1,187.226H81.871v-9.355H93.1Zm0,0" transform="translate(-70.645 -155.419)" fill="#19c569"/>
  <path id="Path_188" data-name="Path 188" d="M112,208h7.484v1.871H112Zm0,0" transform="translate(-98.903 -183.677)" fill="#19c569"/>
  <path id="Path_189" data-name="Path 189" d="M112,240h7.484v1.871H112Zm0,0" transform="translate(-98.903 -211.935)" fill="#19c569"/>
  <path id="Path_190" data-name="Path 190" d="M224,256h1.871v1.871H224Zm0,0" transform="translate(-197.806 -226.065)" fill="#19c569"/>
  <path id="Path_191" data-name="Path 191" d="M256,256h18.71v1.871H256Zm0,0" transform="translate(-226.064 -226.065)" fill="#19c569"/>
</svg>
