<svg id="rocket" xmlns="http://www.w3.org/2000/svg" width="58" height="58" viewBox="0 0 58 58">
  <g id="Group_117" data-name="Group 117" transform="translate(28.5 27.235)">
    <g id="Group_116" data-name="Group 116">
      <path id="Path_162" data-name="Path 162" d="M253.521,240.751a1.133,1.133,0,1,0,0,1.6A1.133,1.133,0,0,0,253.521,240.751Z" transform="translate(-251.587 -240.419)" fill="#3d58f3"/>
    </g>
  </g>
  <g id="Group_119" data-name="Group 119" transform="translate(35.186 11.489)">
    <g id="Group_118" data-name="Group 118">
      <path id="Path_163" data-name="Path 163" d="M320.27,103.075a5.664,5.664,0,1,0,0,8.01A5.662,5.662,0,0,0,320.27,103.075Zm-1.6,6.408a3.4,3.4,0,1,1,0-4.806A3.4,3.4,0,0,1,318.668,109.484Z" transform="translate(-310.603 -101.415)" fill="#3d58f3"/>
    </g>
  </g>
  <g id="Group_121" data-name="Group 121" transform="translate(10.877 0)">
    <g id="Group_120" data-name="Group 120">
      <path id="Path_164" data-name="Path 164" d="M142.809.332A1.129,1.129,0,0,0,141.968,0a50.324,50.324,0,0,0-13.6,2.817,37.928,37.928,0,0,0-14.392,8.728c-.838.838-1.654,1.727-2.434,2.65-3.7-2.177-6.662-1.494-8.536-.492-4.314,2.309-6.984,8.577-6.984,13.061a1.133,1.133,0,0,0,1.934.8,7.212,7.212,0,0,1,6-2.012l.4.4a39.845,39.845,0,0,0-1.871,5.5,3.207,3.207,0,0,0,.137,1.968,10.728,10.728,0,0,0-3.059,2.157C96.638,38.493,96.046,45.6,96.022,45.9a1.133,1.133,0,0,0,1.129,1.222q.045,0,.089,0c.3-.024,7.408-.616,10.324-3.532a10.728,10.728,0,0,0,2.156-3.058,3.2,3.2,0,0,0,1.969.136,39.85,39.85,0,0,0,5.5-1.871l.4.4a7.212,7.212,0,0,1-2.012,6,1.133,1.133,0,0,0,.8,1.934c4.484,0,10.752-2.67,13.061-6.984,1-1.873,1.685-4.837-.492-8.536.923-.78,1.812-1.6,2.65-2.434a37.93,37.93,0,0,0,8.728-14.391,50.323,50.323,0,0,0,2.817-13.6A1.133,1.133,0,0,0,142.809.332Zm-44.259,24c.7-3.406,2.748-7.143,5.521-8.627a6.036,6.036,0,0,1,6.032.284,45.8,45.8,0,0,0-4.76,7.758,1.194,1.194,0,0,0-.6-.352A9.682,9.682,0,0,0,98.551,24.329Zm7.411,17.657c-1.558,1.558-5.212,2.379-7.521,2.715.336-2.31,1.157-5.963,2.715-7.521a8.164,8.164,0,0,1,2.9-1.906l3.812,3.812A8.162,8.162,0,0,1,105.962,41.986Zm5.165-3.515a1.063,1.063,0,0,1-.99-.321l-2.219-2.219-2.926-2.926a1.064,1.064,0,0,1-.322-.99,36.78,36.78,0,0,1,1.414-4.327l9.368,9.368A36.758,36.758,0,0,1,111.127,38.471Zm16.313.6c-1.484,2.773-5.221,4.817-8.627,5.521a9.642,9.642,0,0,0,.928-6.222,1.183,1.183,0,0,0-.344-.572,45.82,45.82,0,0,0,7.758-4.76A6.036,6.036,0,0,1,127.44,39.07Zm2.554-11.5a41.12,41.12,0,0,1-3.267,2.931,43.523,43.523,0,0,1-9.031,5.6L107.045,25.446a43.516,43.516,0,0,1,5.6-9.03,41.106,41.106,0,0,1,2.931-3.267A35.323,35.323,0,0,1,128.451,5.2l9.492,9.492A35.321,35.321,0,0,1,129.994,27.567ZM138.758,12.3l-7.918-7.918a50.93,50.93,0,0,1,9.94-2.022A50.938,50.938,0,0,1,138.758,12.3Z" transform="translate(-96.018 0)" fill="#3d58f3"/>
    </g>
  </g>
  <g id="Group_123" data-name="Group 123" transform="translate(22.092 46.459)">
    <g id="Group_122" data-name="Group 122">
      <path id="Path_165" data-name="Path 165" d="M200.158,410.453a1.133,1.133,0,0,0-1.6,0l-3.2,3.2a1.133,1.133,0,1,0,1.6,1.6l3.2-3.2A1.133,1.133,0,0,0,200.158,410.453Z" transform="translate(-195.021 -410.121)" fill="#3d58f3"/>
    </g>
  </g>
  <g id="Group_125" data-name="Group 125" transform="translate(6.071 30.439)">
    <g id="Group_124" data-name="Group 124">
      <path id="Path_166" data-name="Path 166" d="M58.73,269.033a1.133,1.133,0,0,0-1.6,0l-3.2,3.2a1.133,1.133,0,1,0,1.6,1.6l3.2-3.2A1.133,1.133,0,0,0,58.73,269.033Z" transform="translate(-53.592 -268.701)" fill="#3d58f3"/>
    </g>
  </g>
  <g id="Group_127" data-name="Group 127" transform="translate(9.612 48.062)">
    <g id="Group_126" data-name="Group 126">
      <path id="Path_167" data-name="Path 167" d="M94.459,424.6a1.133,1.133,0,0,0-1.6,0l-7.674,7.673a1.133,1.133,0,0,0,1.6,1.6l7.674-7.673A1.133,1.133,0,0,0,94.459,424.6Z" transform="translate(-84.851 -424.271)" fill="#3d58f3"/>
    </g>
  </g>
  <g id="Group_129" data-name="Group 129" transform="translate(0.549 48.062)">
    <g id="Group_128" data-name="Group 128">
      <path id="Path_168" data-name="Path 168" d="M14.459,424.6a1.133,1.133,0,0,0-1.6,0l-7.674,7.673a1.133,1.133,0,0,0,1.6,1.6l7.674-7.673A1.133,1.133,0,0,0,14.459,424.6Z" transform="translate(-4.851 -424.271)" fill="#3d58f3"/>
    </g>
  </g>
  <g id="Group_131" data-name="Group 131" transform="translate(0 38.449)">
    <g id="Group_130" data-name="Group 130">
      <path id="Path_169" data-name="Path 169" d="M9.608,339.742a1.133,1.133,0,0,0-1.6,0L.333,347.416a1.133,1.133,0,1,0,1.6,1.6l7.673-7.674A1.133,1.133,0,0,0,9.608,339.742Z" transform="translate(-0.001 -339.41)" fill="#3d58f3"/>
    </g>
  </g>
  <g id="Group_133" data-name="Group 133" transform="translate(31.704 22.429)">
    <g id="Group_132" data-name="Group 132">
      <path id="Path_170" data-name="Path 170" d="M283.407,198.322a1.133,1.133,0,0,0-1.6,0l-1.6,1.6a1.133,1.133,0,1,0,1.6,1.6l1.6-1.6A1.133,1.133,0,0,0,283.407,198.322Z" transform="translate(-279.871 -197.99)" fill="#3d58f3"/>
    </g>
  </g>
</svg>
