<svg id="customer-service" xmlns="http://www.w3.org/2000/svg" width="57.866" height="58" viewBox="0 0 57.866 58">
  <g id="Group_169" data-name="Group 169" transform="translate(0.001 9.355)">
    <g id="Group_168" data-name="Group 168">
      <path id="Path_177" data-name="Path 177" d="M47.582,121.161l-2.166-6.5a6.549,6.549,0,0,0-5.041-4.372l-6.252-1.138v-.485a9.415,9.415,0,0,0,2.789-2.476H38.8a2.81,2.81,0,0,0,2.806-2.806V92.161a12.161,12.161,0,0,0-24.323,0V98.71a3.748,3.748,0,0,0,2.983,3.664,9.372,9.372,0,0,0,4.5,6.3v.485l-6.253,1.138a6.547,6.547,0,0,0-5.04,4.372l-.374,1.124L9.914,112.6a.937.937,0,0,1,0-1.324l3.7-3.694-6.936-6.936L2.5,104.823a6.548,6.548,0,0,0,0,9.26l12.643,12.643a6.545,6.545,0,0,0,9.231.028l4.557-4.175-1.421-1.418Zm-7.846-17.774a.936.936,0,0,1-.935.935h-.787a9.292,9.292,0,0,0,.61-1.949,3.706,3.706,0,0,0,1.112-.442Zm-.935-3.067V97.1a1.855,1.855,0,0,1,0,3.222Zm-18.71,0a1.855,1.855,0,0,1,0-3.222Zm0-6.288V95.1a3.71,3.71,0,0,0-.935.387V92.161a10.29,10.29,0,0,1,20.581,0v3.327A3.676,3.676,0,0,0,38.8,95.1V94.032h-.935A10.293,10.293,0,0,1,30.541,91l-1.1-1.1L28.35,91a10.293,10.293,0,0,1-7.324,3.034Zm1.871,6.548V95.868a12.129,12.129,0,0,0,7.484-3.325,12.123,12.123,0,0,0,7.484,3.325v4.713a7.428,7.428,0,0,1-1.012,3.742H29.445v1.871h4.934a7.472,7.472,0,0,1-12.418-5.613Zm10.29,8.924v.044l-2.806,2.806-2.806-2.806V109.5a9.347,9.347,0,0,0,5.613,0Zm-17,5.75a4.679,4.679,0,0,1,3.6-3.124l6.539-1.188L29.445,115l4.056-4.056,6.538,1.188a4.677,4.677,0,0,1,3.6,3.124l1.346,4.035H25.637l-3.644-3.644-4.049,3.662a.955.955,0,0,1-1.323,0l-2.043-2.043ZM6.673,103.293l4.29,4.29L9.947,108.6l-4.29-4.29Zm16.4,22.113a4.678,4.678,0,0,1-6.615,0L3.819,112.762a4.678,4.678,0,0,1,0-6.615l.515-.515,4.29,4.29-.034.034a2.811,2.811,0,0,0,0,3.969l6.708,6.708a2.792,2.792,0,0,0,1.985.822,2.754,2.754,0,0,0,1.95-.79l.07-.063,4.31,4.31Zm1.918-1.759-4.3-4.3,1.236-1.117,4.293,4.293Z" transform="translate(-0.58 -80)" fill="#9548f9"/>
    </g>
  </g>
  <g id="Group_171" data-name="Group 171" transform="translate(39.157)">
    <g id="Group_170" data-name="Group 170">
      <path id="Path_178" data-name="Path 178" d="M351.331,0h-13.1a2.81,2.81,0,0,0-2.806,2.806V10.29a2.81,2.81,0,0,0,2.806,2.806h2.5l-.967,5.642,9.027-5.642h2.538a2.81,2.81,0,0,0,2.806-2.806V2.806A2.81,2.81,0,0,0,351.331,0Zm.935,10.29a.937.937,0,0,1-.935.935h-3.075l-5.941,3.713.637-3.713h-4.718a.937.937,0,0,1-.935-.935V2.806a.937.937,0,0,1,.935-.935h13.1a.937.937,0,0,1,.935.935Z" transform="translate(-335.428)" fill="#9548f9"/>
    </g>
  </g>
  <g id="Group_173" data-name="Group 173" transform="translate(42.898 3.742)">
    <g id="Group_172" data-name="Group 172">
      <rect id="Rectangle_82" data-name="Rectangle 82" width="11.226" height="1.871" fill="#9548f9"/>
    </g>
  </g>
  <g id="Group_175" data-name="Group 175" transform="translate(42.898 7.484)">
    <g id="Group_174" data-name="Group 174">
      <rect id="Rectangle_83" data-name="Rectangle 83" width="7.484" height="1.871" fill="#9548f9"/>
    </g>
  </g>
  <g id="Group_177" data-name="Group 177" transform="translate(52.253 7.484)">
    <g id="Group_176" data-name="Group 176">
      <rect id="Rectangle_84" data-name="Rectangle 84" width="1.871" height="1.871" fill="#9548f9"/>
    </g>
  </g>
  <g id="Group_179" data-name="Group 179" transform="translate(0 2.806)">
    <g id="Group_178" data-name="Group 178">
      <path id="Path_179" data-name="Path 179" d="M29.438,24A26.177,26.177,0,0,0,3.949,44.249L2.176,41.293l-1.6.963L3.86,47.735l5.479-3.288-.963-1.6L5.842,44.364a24.329,24.329,0,0,1,30.8-17.407l.554-1.787A26.177,26.177,0,0,0,29.438,24Z" transform="translate(-0.572 -24)" fill="#9548f9"/>
    </g>
  </g>
  <g id="Group_181" data-name="Group 181" transform="translate(47.764 17.425)">
    <g id="Group_180" data-name="Group 180">
      <path id="Path_180" data-name="Path 180" d="M418.684,152.3l-5.479-3.288-3.287,5.48,1.6.963,1.637-2.729a24.344,24.344,0,0,1-4.123,23.175l1.453,1.179a26.2,26.2,0,0,0,4.483-24.824l2.749,1.649Z" transform="translate(-409.036 -149.016)" fill="#9548f9"/>
    </g>
  </g>
</svg>
